<svg width="480" height="320" version="1.1" viewBox="0 0 127 85" xmlns="http://www.w3.org/2000/svg">
  <g fill="#dc3d68" stroke="#000" stroke-width="1">
    <path d="m18.769 23.903q-0.91777-0.21084-1.3891-0.21084-0.58291 0-1.0666 0.39688-0.58291 0.48369-0.58291 1.2526 0 0.59531 1.0666 2.2944 1.0666 1.6991 1.0666 3.1254 0 2.0712-1.5751 3.3982-1.5007 1.2774-3.7083 1.2774-2.034 0-3.0014-0.28525-0.11162-0.57051-0.38447-1.8604-0.17363-0.69453-0.48369-1.8479 1.3643 0.33486 1.8355 0.33486 1.8479 0 1.8479-1.4015 0-1.017-0.74414-1.8231-1.2154-1.0666-2.4309-2.1456-2.3564-2.0836-2.3564-4.9485 0-2.989 2.2324-4.5269 1.9472-1.3395 5.1842-1.3395 1.8355 0 4.1176 0.5333z"/>
    <path d="m37.662 23.618q0 3.5223-2.2572 5.6431-2.2448 2.1084-5.9655 2.1084l-0.14883 3.7827h-6.8337l-0.35967-9.2397q-0.16123-3.5719-0.5085-9.8103 1.9348-0.38447 5.6679-0.38447 4.5517 0 7.2926 1.8231 3.113 2.0712 3.113 6.0771zm-5.147 2.0836q0-1.9348-2.2944-1.9348-0.27285 0-0.5581 0.03721l-0.12402 4.3408q2.9766-0.09922 2.9766-2.4433z"/>
    <path d="m56.964 25.218q0 4.378-2.2572 7.4042-2.3688 3.1626-6.0647 3.1626-3.8075 0-6.164-3.1874-2.22-3.0014-2.22-7.3794 0-4.6757 2.4185-7.3422 2.282-2.5053 5.9655-2.5053 3.6215 0 5.9035 2.5177 2.4185 2.6789 2.4185 7.3298zm-5.9655 2.1828q0-3.4479-2.3316-3.4479-2.2696 0-2.2696 3.4727 0 1.3891 0.59531 2.5921 0.66973 1.3519 1.6495 1.3519 0.95498 0 1.6867-1.3767 0.66973-1.2526 0.66973-2.5921z"/>
    <path d="m68.366 16.102-0.48369 10.133q-0.13642 3.2742-0.32246 8.9173h-6.9577l-0.84336-19.05z"/>
    <path d="m84.109 31.394q-0.12402 0.49609-0.45889 1.8728-0.17363 0.80615-0.29766 1.8852h-11.224q-0.06201-2.9146-0.31006-9.5994-0.16123-3.423-0.58291-9.4506h8.6072l-0.70693 15.801q1.203 0 3.6091-0.26045 0.49609-0.04961 1.3643-0.24805z"/>
    <path d="m99.579 16.102-0.5333 7.8507q-0.45889-0.07441-1.9844-0.26045-1.0418-0.09922-2.282-0.12402l-0.18604 2.3688q1.3643 0.03721 4.4524-0.06201-0.13643 0.45889-0.43408 1.7115-0.17363 0.75654-0.31006 1.7487-0.35967-0.08682-1.7983-0.22324-0.66973-0.03721-1.9844-0.0248l-0.12402 2.7657q0.93018-0.0124 3.423-0.16123 0.47129-0.03721 1.5503-0.29766-0.09922 0.38447-0.45889 1.8479-0.17363 0.75654-0.42168 1.91h-11.1l-0.35967-9.7234q-0.09922-3.3362-0.48369-9.3266z"/>
    <path d="m119.15 23.233q0 2.282-1.2774 4.0432-1.1286 1.5379-2.8277 2.2076 0.35967 0.5581 1.7735 2.344 0.70693 0.81855 2.158 2.158-0.58291 0.21084-2.5673 1.0666-1.3891 0.63252-2.6169 1.2402-0.35967-0.44648-1.5999-2.3068-0.5705-0.94258-1.6743-3.175h-0.0248l-0.12402 4.3408h-6.9825q-0.13642-2.7037-0.38447-8.9173-0.11162-3.6587-0.5085-10.133 3.4106-0.35967 6.226-0.35967 10.43 0 10.43 7.491zm-5.6307 2.6789q0-1.1782-0.99219-1.6867-0.73174-0.37207-1.8356-0.32246l-0.0744 4.2416q1.0294 0 1.8355-0.45889 1.0666-0.59531 1.0666-1.7735z"/>
    <path d="m37.59 66.902h-6.7841l-0.45889-1.6495q-0.28525 0.11162-1.4263 0.75654-0.73174 0.47129-1.6247 1.2526l-0.70693-1.5007q-0.21084-0.44648-0.60771-1.2526l-0.66973 2.3937h-3.5967q0.79375-3.0634 2.4557-10.108 1.017-4.7129 1.6991-8.9421h7.4538q0.34727 1.9472 1.8976 9.0661 0.85576 3.7207 2.3688 9.9839zm-7.8259-4.068q-0.21084-0.65732-0.74414-2.1332-0.32246-0.81856-0.97978-2.2572-0.28525 0.71934-0.89297 2.3564-0.33486 0.94258-0.79375 2.5673 0.37207 0 1.6867-0.14883 0.79375-0.11162 1.7239-0.38447z"/>
    <path d="m52.774 63.144q-0.12402 0.49609-0.45889 1.8728-0.17363 0.80615-0.29766 1.8852h-11.224q-0.06201-2.9146-0.31006-9.5994-0.16123-3.423-0.58291-9.4506h8.6072l-0.70693 15.801q1.203 0 3.6091-0.26045 0.49609-0.04961 1.3643-0.24805z"/>
    <path d="m68.244 47.852-0.5333 7.8507q-0.45889-0.07441-1.9844-0.26045-1.0418-0.09922-2.282-0.12402l-0.18604 2.3688q1.3643 0.03721 4.4524-0.06201-0.13643 0.45889-0.43408 1.7115-0.17363 0.75654-0.31006 1.7487-0.35967-0.08682-1.7983-0.22324-0.66973-0.03721-1.9844-0.02481l-0.12402 2.7657q0.93018-0.0124 3.423-0.16123 0.47129-0.03721 1.5503-0.29766-0.09922 0.38447-0.45889 1.8479-0.17363 0.75654-0.42168 1.91h-11.1l-0.35967-9.7234q-0.09922-3.3362-0.48369-9.3266z"/>
    <path d="m87.819 54.983q0 2.282-1.2774 4.0432-1.1286 1.5379-2.8277 2.2076 0.35967 0.55811 1.7735 2.344 0.70693 0.81856 2.158 2.158-0.58291 0.21084-2.5673 1.0666-1.3891 0.63252-2.6169 1.2402-0.35967-0.44648-1.5999-2.3068-0.57051-0.94258-1.6743-3.175h-0.0248l-0.12402 4.3408h-6.9825q-0.13643-2.7037-0.38447-8.9173-0.11162-3.6587-0.5085-10.133 3.4106-0.35967 6.226-0.35967 10.43 0 10.43 7.491zm-5.6307 2.6789q0-1.1782-0.99219-1.6867-0.73174-0.37207-1.8355-0.32246l-0.07441 4.2416q1.0294 0 1.8355-0.45889 1.0666-0.59531 1.0666-1.7735z"/>
    <path d="m105.53 47.852-0.35967 7.8011q-0.48369-0.07441-1.5503-0.18604-0.65733-0.03721-2.1332-0.07441-0.0744 0.73174-0.26044 3.5347-0.13643 2.7161-0.44649 7.9747h-6.0027q-0.09922-2.5053-0.37207-7.8755-0.12402-1.8604-0.26045-3.6339l-1.9596 0.07441-1.7735 0.18604-0.31006-7.8011z"/>
  </g>
</svg>
